<svg xmlns="http://www.w3.org/2000/svg" xmlns:xlink="http://www.w3.org/1999/xlink" width="500" zoomAndPan="magnify" viewBox="0 0 375 374.999991" height="500" preserveAspectRatio="xMidYMid meet" version="1.0"><defs><g/><clipPath id="65d5798023"><path d="M 62 147.75 L 143 147.75 L 143 175 L 62 175 Z M 62 147.75 " clip-rule="nonzero"/></clipPath><clipPath id="531b3baf2b"><path d="M 52.429688 170 L 152.929688 170 L 152.929688 227.25 L 52.429688 227.25 Z M 52.429688 170 " clip-rule="nonzero"/></clipPath></defs><g clip-path="url(#65d5798023)"><path fill="#0092b1" d="M 66.414062 174.152344 C 67.246094 172.472656 68.191406 170.859375 69.25 169.3125 C 70.308594 167.765625 71.46875 166.296875 72.730469 164.910156 C 73.992188 163.527344 75.34375 162.234375 76.785156 161.035156 C 78.226562 159.835938 79.746094 158.742188 81.339844 157.753906 C 82.933594 156.769531 84.589844 155.894531 86.304688 155.136719 C 88.023438 154.378906 89.78125 153.742188 91.585938 153.230469 C 93.390625 152.714844 95.222656 152.332031 97.082031 152.070312 C 98.941406 151.8125 100.808594 151.683594 102.683594 151.683594 C 104.5625 151.683594 106.429688 151.8125 108.285156 152.070312 C 110.144531 152.332031 111.976562 152.714844 113.78125 153.230469 C 115.585938 153.742188 117.347656 154.378906 119.0625 155.136719 C 120.777344 155.894531 122.433594 156.769531 124.027344 157.753906 C 125.621094 158.742188 127.140625 159.835938 128.582031 161.035156 C 130.027344 162.234375 131.378906 163.527344 132.640625 164.910156 C 133.902344 166.296875 135.0625 167.765625 136.121094 169.3125 C 137.179688 170.859375 138.125 172.472656 138.957031 174.152344 C 139.921875 173.632812 142.433594 173.023438 142.753906 172.992188 C 141.855469 171.113281 140.832031 169.304688 139.679688 167.570312 C 138.527344 165.835938 137.257812 164.1875 135.875 162.632812 C 134.488281 161.074219 133 159.621094 131.410156 158.273438 C 129.820312 156.925781 128.144531 155.695312 126.378906 154.585938 C 124.617188 153.472656 122.78125 152.492188 120.878906 151.636719 C 118.976562 150.785156 117.023438 150.066406 115.019531 149.488281 C 113.015625 148.910156 110.984375 148.472656 108.917969 148.183594 C 106.851562 147.890625 104.777344 147.742188 102.691406 147.742188 C 100.605469 147.742188 98.53125 147.890625 96.464844 148.183594 C 94.398438 148.472656 92.363281 148.910156 90.359375 149.488281 C 88.355469 150.066406 86.402344 150.785156 84.5 151.636719 C 82.597656 152.492188 80.765625 153.472656 79 154.585938 C 77.238281 155.695312 75.5625 156.925781 73.972656 158.273438 C 72.382812 159.621094 70.894531 161.074219 69.507812 162.632812 C 68.125 164.1875 66.855469 165.835938 65.703125 167.570312 C 64.550781 169.304688 63.527344 171.113281 62.628906 172.992188 C 62.929688 173.023438 65.449219 173.632812 66.414062 174.152344 Z M 66.414062 174.152344 " fill-opacity="1" fill-rule="nonzero"/></g><path fill="#2c3e50" d="M 151.574219 178.847656 L 151.347656 177.628906 C 151.292969 177.347656 151.195312 177.085938 151.046875 176.839844 C 150.902344 176.597656 150.714844 176.386719 150.492188 176.207031 C 150.269531 176.027344 150.019531 175.894531 149.746094 175.804688 C 149.476562 175.71875 149.195312 175.679688 148.910156 175.691406 C 146.4375 175.789062 143.8125 175.976562 142.402344 176.191406 C 139.410156 176.648438 135.488281 180.859375 135.488281 180.859375 L 127.867188 170.238281 C 125.367188 166.757812 122.53125 163.726562 117.894531 163.726562 L 87.488281 163.726562 C 82.839844 163.726562 80.015625 166.757812 77.503906 170.238281 L 69.882812 180.859375 C 69.882812 180.859375 65.957031 176.648438 62.96875 176.1875 C 61.558594 175.972656 58.933594 175.785156 56.460938 175.6875 C 56.175781 175.675781 55.894531 175.714844 55.625 175.800781 C 55.351562 175.890625 55.101562 176.023438 54.878906 176.203125 C 54.65625 176.378906 54.46875 176.59375 54.320312 176.835938 C 54.175781 177.082031 54.074219 177.347656 54.023438 177.628906 L 53.796875 178.84375 C 53.433594 180.804688 54.601562 181.542969 56.613281 182.097656 C 58.285156 182.558594 60.871094 183.214844 61.824219 183.117188 C 63.363281 182.957031 65.644531 181.929688 66.027344 181.804688 L 66.0625 181.839844 C 66.175781 181.964844 66.277344 182.101562 66.359375 182.253906 C 66.441406 182.402344 66.507812 182.5625 66.550781 182.726562 C 66.597656 182.890625 66.621094 183.0625 66.625 183.234375 C 66.632812 183.402344 66.617188 183.574219 66.578125 183.742188 C 66.542969 183.910156 66.488281 184.070312 66.414062 184.222656 C 66.339844 184.378906 66.246094 184.523438 66.136719 184.65625 C 66.027344 184.789062 65.90625 184.90625 65.765625 185.007812 C 65.628906 185.109375 65.480469 185.195312 65.324219 185.265625 C 63.824219 185.921875 61.804688 186.898438 61.308594 187.597656 C 60.265625 188.636719 58.964844 203.8125 58.550781 208.933594 C 58.511719 209.453125 58.597656 209.949219 58.816406 210.421875 C 59.03125 210.898438 59.351562 211.289062 59.773438 211.597656 L 62.570312 213.640625 L 62.570312 216.132812 C 62.570312 216.359375 62.652344 216.554688 62.8125 216.714844 C 62.972656 216.878906 63.167969 216.960938 63.398438 216.960938 L 69.800781 217.015625 L 83.089844 201.566406 C 83.089844 200.75 83.214844 196.152344 83.320312 195.078125 L 79.425781 195.078125 L 75.730469 197.1875 C 75.414062 197.363281 75.070312 197.445312 74.707031 197.433594 L 68.464844 197.140625 C 68.117188 197.125 67.78125 197.046875 67.460938 196.90625 C 67.144531 196.765625 66.859375 196.574219 66.609375 196.328125 C 66.363281 196.082031 66.167969 195.800781 66.023438 195.484375 C 65.882812 195.167969 65.800781 194.832031 65.78125 194.484375 L 65.527344 189.777344 C 65.523438 189.679688 65.558594 189.601562 65.632812 189.539062 C 65.710938 189.480469 65.796875 189.460938 65.890625 189.484375 L 79.921875 193.234375 L 83.558594 193.234375 C 84.132812 190.414062 85.175781 188.289062 88 184.925781 L 74.800781 180.730469 C 74.6875 180.695312 74.585938 180.636719 74.503906 180.554688 C 74.417969 180.46875 74.355469 180.371094 74.316406 180.257812 C 74.277344 180.144531 74.269531 180.03125 74.289062 179.914062 C 74.304688 179.796875 74.351562 179.6875 74.421875 179.59375 C 75.8125 177.714844 78.476562 173.039062 81.675781 169.160156 C 82.027344 168.734375 82.449219 168.40625 82.945312 168.171875 C 83.441406 167.9375 83.964844 167.816406 84.511719 167.816406 L 120.859375 167.816406 C 121.40625 167.820312 121.929688 167.9375 122.425781 168.171875 C 122.921875 168.40625 123.34375 168.734375 123.691406 169.160156 C 126.890625 173.039062 129.554688 177.714844 130.949219 179.59375 C 131.019531 179.6875 131.0625 179.796875 131.082031 179.914062 C 131.101562 180.03125 131.089844 180.144531 131.050781 180.257812 C 131.015625 180.371094 130.953125 180.46875 130.867188 180.554688 C 130.78125 180.636719 130.679688 180.695312 130.566406 180.730469 L 119.460938 184.316406 C 120.429688 184.871094 121.21875 185.621094 121.824219 186.558594 C 122.425781 187.496094 122.78125 188.523438 122.886719 189.636719 C 124.46875 190.320312 125.636719 191.4375 126.390625 192.984375 L 139.480469 189.488281 C 139.574219 189.464844 139.660156 189.480469 139.738281 189.542969 C 139.8125 189.605469 139.847656 189.683594 139.84375 189.78125 L 139.585938 194.488281 C 139.566406 194.835938 139.488281 195.167969 139.34375 195.488281 C 139.203125 195.804688 139.007812 196.085938 138.757812 196.332031 C 138.511719 196.578125 138.226562 196.769531 137.90625 196.910156 C 137.585938 197.050781 137.253906 197.128906 136.90625 197.144531 L 130.667969 197.433594 C 130.300781 197.449219 129.957031 197.367188 129.640625 197.1875 L 127.078125 195.730469 C 127.105469 196.21875 127.085938 196.703125 127.03125 197.1875 C 127.738281 197.585938 128.347656 198.101562 128.851562 198.742188 C 129.359375 199.378906 129.722656 200.089844 129.949219 200.871094 C 130.992188 204.34375 129.25 208.21875 125.296875 211.277344 C 124.121094 212.140625 122.863281 212.851562 121.515625 213.410156 C 122.207031 213.539062 122.882812 213.71875 123.542969 213.949219 L 126.632812 215.023438 L 126.632812 216.253906 C 126.632812 216.488281 126.714844 216.683594 126.878906 216.847656 C 127.042969 217.007812 127.242188 217.089844 127.472656 217.089844 L 141.984375 216.964844 C 142.214844 216.964844 142.40625 216.882812 142.570312 216.71875 C 142.730469 216.558594 142.808594 216.363281 142.808594 216.132812 L 142.808594 213.644531 L 145.605469 211.601562 C 146.027344 211.292969 146.347656 210.902344 146.5625 210.425781 C 146.78125 209.953125 146.871094 209.457031 146.828125 208.933594 C 146.414062 203.824219 145.113281 188.640625 144.070312 187.601562 C 143.566406 186.898438 141.554688 185.925781 140.058594 185.269531 C 139.898438 185.203125 139.75 185.117188 139.613281 185.015625 C 139.476562 184.910156 139.351562 184.792969 139.242188 184.660156 C 139.132812 184.527344 139.042969 184.382812 138.96875 184.230469 C 138.890625 184.074219 138.835938 183.914062 138.800781 183.746094 C 138.765625 183.578125 138.75 183.40625 138.753906 183.234375 C 138.757812 183.0625 138.785156 182.894531 138.828125 182.726562 C 138.875 182.5625 138.9375 182.40625 139.023438 182.253906 C 139.105469 182.105469 139.203125 181.964844 139.320312 181.839844 L 139.351562 181.808594 C 139.738281 181.933594 142.015625 182.960938 143.554688 183.121094 C 144.515625 183.21875 147.078125 182.5625 148.765625 182.101562 C 150.753906 181.546875 151.9375 180.804688 151.574219 178.847656 Z M 151.574219 178.847656 " fill-opacity="1" fill-rule="nonzero"/><g clip-path="url(#531b3baf2b)"><path fill="#0092b1" d="M 101.609375 224.121094 L 102.089844 223.304688 C 102.316406 222.917969 102.613281 222.601562 102.984375 222.351562 C 103.351562 222.101562 103.757812 221.941406 104.203125 221.875 C 113.847656 220.464844 118.941406 215.722656 120.746094 210.949219 C 121.957031 210.796875 123.042969 210.351562 124.011719 209.613281 C 126.429688 207.75 128.910156 204.695312 127.9375 201.453125 C 127.828125 201.074219 127.667969 200.714844 127.457031 200.378906 C 127.242188 200.042969 126.988281 199.742188 126.691406 199.480469 C 126.390625 199.21875 126.0625 199.003906 125.703125 198.835938 C 125.339844 198.667969 124.964844 198.554688 124.570312 198.496094 C 124.933594 197.550781 125.070312 196.570312 124.976562 195.5625 C 124.925781 195.015625 124.785156 194.488281 124.554688 193.988281 C 124.324219 193.488281 124.015625 193.039062 123.632812 192.640625 C 123.253906 192.242188 122.816406 191.917969 122.324219 191.667969 C 121.832031 191.414062 121.3125 191.25 120.765625 191.175781 C 120.84375 190.664062 120.851562 190.148438 120.785156 189.636719 C 120.449219 187.042969 118.082031 185.386719 115.664062 185.332031 C 115.753906 184.707031 115.742188 184.082031 115.632812 183.460938 C 114.992188 179.976562 110.390625 179.03125 107.742188 181.003906 C 107.570312 181.128906 104.808594 183.007812 102.875 185.574219 C 103.058594 183.933594 102.972656 182.304688 102.617188 180.691406 C 101.640625 176.304688 99.097656 171.824219 94.507812 170.5 C 92.890625 170.03125 91.097656 170.21875 90.164062 171.777344 C 89.007812 173.695312 90.367188 175.679688 91.066406 177.488281 C 92.113281 180.191406 91.953125 182.703125 90.390625 185.15625 C 89.289062 186.867188 87.828125 188.328125 86.828125 190.109375 C 85.363281 192.714844 85.316406 195.859375 85.199219 198.785156 C 85.148438 199.976562 85.199219 202.34375 85.199219 202.34375 L 66.429688 224.121094 L 52.488281 224.121094 L 52.488281 227.238281 L 152.878906 227.238281 L 152.878906 224.121094 Z M 125.917969 202.269531 C 126.394531 204.300781 124.671875 206.125 123.292969 207.382812 C 122.070312 208.492188 119.773438 209.78125 118.464844 208.046875 C 117.792969 207.148438 118.039062 205.878906 118.621094 204.886719 C 118.886719 204.714844 119.136719 204.542969 119.375 204.371094 C 120.785156 203.335938 122.253906 202.136719 123.347656 200.695312 C 124.507812 200.515625 125.605469 200.964844 125.917969 202.28125 Z M 120.070312 193.324219 C 122.070312 193.28125 123.191406 195.386719 122.632812 197.476562 C 122.070312 199.566406 120.125 201.117188 118.472656 202.367188 C 116.871094 203.566406 113.445312 205.972656 111.992188 203.421875 C 111.484375 202.523438 111.871094 201.5625 112.53125 200.6875 C 113.578125 200.167969 114.535156 199.519531 115.410156 198.746094 C 117.019531 197.320312 119.007812 195.460938 120.070312 193.324219 Z M 114.859375 187.601562 C 117.101562 187.160156 119.164062 188.976562 118.441406 191.4375 C 117.863281 193.410156 116.265625 194.90625 114.828125 196.289062 C 113.226562 197.828125 110.75 200.238281 108.386719 198.714844 C 106.171875 197.28125 107.382812 194.941406 108.761719 193.40625 C 109.097656 193.183594 109.433594 192.949219 109.765625 192.707031 C 111.570312 191.402344 113.703125 189.691406 114.859375 187.601562 Z M 103.976562 187.820312 C 105.144531 185.863281 107.855469 183.636719 108.992188 182.761719 C 109.519531 182.371094 110.113281 182.164062 110.769531 182.136719 C 111.429688 182.113281 112.035156 182.273438 112.59375 182.625 C 113.933594 183.511719 113.554688 185.300781 112.945312 186.527344 C 111.953125 188.523438 109.847656 190.007812 108.078125 191.261719 C 107.097656 191.953125 105.746094 192.898438 104.46875 192.425781 C 102.484375 191.691406 103.230469 189.085938 103.988281 187.820312 Z M 88.695312 204.824219 C 89.121094 204.292969 89.273438 203.6875 89.144531 203.015625 C 88.234375 198.082031 89.050781 192.894531 90.785156 189.636719 C 92.878906 185.722656 94.480469 184.277344 93.851562 179.609375 C 93.664062 178.386719 93.308594 177.214844 92.796875 176.09375 C 92.359375 175.066406 90.953125 172.84375 92.796875 172.464844 C 94.871094 172.039062 97.496094 174.699219 98.445312 176.148438 C 101.863281 181.308594 101.410156 188.339844 96.859375 193.570312 C 96.671875 193.792969 96.628906 194.035156 96.726562 194.308594 C 96.824219 194.578125 97.015625 194.738281 97.300781 194.785156 C 98.761719 195.050781 100.136719 195.558594 101.421875 196.300781 C 106.507812 199.195312 109.421875 204.375 110.109375 210.359375 C 110.144531 210.511719 110.238281 210.597656 110.394531 210.613281 C 110.550781 210.625 110.65625 210.5625 110.71875 210.417969 C 111.238281 208.914062 111.367188 207.375 111.105469 205.804688 C 112.445312 206.921875 114.214844 206.828125 115.90625 206.238281 C 115.71875 207.347656 115.941406 208.367188 116.566406 209.300781 C 117.007812 209.914062 117.578125 210.363281 118.277344 210.652344 C 115.28125 214.675781 111.238281 218.421875 102.867188 218.289062 C 101.996094 218.273438 101.164062 218.445312 100.367188 218.804688 C 99.574219 219.160156 98.890625 219.667969 98.320312 220.328125 L 95.035156 224.121094 L 72.8125 224.121094 C 76.855469 219.242188 86.144531 208.011719 88.707031 204.824219 Z M 88.695312 204.824219 " fill-opacity="1" fill-rule="nonzero"/></g><g fill="#0092b1" fill-opacity="1"><g transform="translate(151.752918, 200.039191)"><g><path d="M 13.734375 0 L 8.078125 0 L 0.609375 -25.40625 L 6.234375 -25.40625 L 11.0625 -7.359375 L 16.546875 -25.40625 L 22.171875 -25.40625 L 27.65625 -7.234375 L 32.640625 -25.40625 L 38.0625 -25.40625 L 30.53125 0 L 24.859375 0 L 19.34375 -18.4375 L 19.28125 -18.4375 Z M 13.734375 0 "/></g></g></g><g fill="#0092b1" fill-opacity="1"><g transform="translate(188.220956, 200.039191)"><g><path d="M 6.421875 -7.265625 C 6.597656 -6.179688 7.09375 -5.34375 7.90625 -4.75 C 8.71875 -4.15625 9.648438 -3.859375 10.703125 -3.859375 C 11.441406 -3.859375 12.171875 -4.039062 12.890625 -4.40625 C 13.617188 -4.78125 14.179688 -5.289062 14.578125 -5.9375 L 18.234375 -3.53125 C 16.785156 -0.914062 14.300781 0.390625 10.78125 0.390625 C 9.019531 0.390625 7.421875 0.00390625 5.984375 -0.765625 C 4.546875 -1.535156 3.398438 -2.597656 2.546875 -3.953125 C 1.691406 -5.316406 1.265625 -6.898438 1.265625 -8.703125 C 1.265625 -9.953125 1.503906 -11.125 1.984375 -12.21875 C 2.472656 -13.3125 3.140625 -14.273438 3.984375 -15.109375 C 4.828125 -15.941406 5.800781 -16.585938 6.90625 -17.046875 C 8.007812 -17.515625 9.191406 -17.75 10.453125 -17.75 C 12.179688 -17.75 13.6875 -17.378906 14.96875 -16.640625 C 16.257812 -15.910156 17.265625 -14.894531 17.984375 -13.59375 C 18.710938 -12.300781 19.078125 -10.800781 19.078125 -9.09375 C 19.078125 -8.78125 19.078125 -8.472656 19.078125 -8.171875 C 19.078125 -7.867188 19.054688 -7.566406 19.015625 -7.265625 Z M 14.015625 -10.609375 C 13.992188 -11.046875 13.847656 -11.492188 13.578125 -11.953125 C 13.304688 -12.421875 12.90625 -12.816406 12.375 -13.140625 C 11.84375 -13.460938 11.15625 -13.625 10.3125 -13.625 C 9.5625 -13.625 8.914062 -13.453125 8.375 -13.109375 C 7.832031 -12.765625 7.410156 -12.359375 7.109375 -11.890625 C 6.804688 -11.429688 6.625 -11.003906 6.5625 -10.609375 Z M 14.015625 -10.609375 "/></g></g></g><g fill="#2c3e50" fill-opacity="1"><g transform="translate(208.567712, 200.039191)"><g><path d="M 10.390625 0.265625 C 8.160156 0.265625 6.316406 -0.285156 4.859375 -1.390625 C 3.410156 -2.492188 2.320312 -4.007812 1.59375 -5.9375 L 3.890625 -7.140625 C 4.492188 -5.671875 5.289062 -4.484375 6.28125 -3.578125 C 7.28125 -2.679688 8.648438 -2.234375 10.390625 -2.234375 C 11.378906 -2.234375 12.285156 -2.414062 13.109375 -2.78125 C 13.929688 -3.15625 14.59375 -3.671875 15.09375 -4.328125 C 15.59375 -4.992188 15.84375 -5.769531 15.84375 -6.65625 C 15.84375 -8 15.328125 -9.0625 14.296875 -9.84375 C 13.265625 -10.632812 11.8125 -11.257812 9.9375 -11.71875 C 7.3125 -12.34375 5.390625 -13.226562 4.171875 -14.375 C 2.953125 -15.519531 2.34375 -16.984375 2.34375 -18.765625 C 2.34375 -20.210938 2.710938 -21.453125 3.453125 -22.484375 C 4.203125 -23.523438 5.179688 -24.320312 6.390625 -24.875 C 7.597656 -25.425781 8.90625 -25.703125 10.3125 -25.703125 C 12.4375 -25.703125 14.164062 -25.195312 15.5 -24.1875 C 16.832031 -23.1875 17.78125 -21.925781 18.34375 -20.40625 L 16.0625 -19.140625 C 15.78125 -19.859375 15.398438 -20.523438 14.921875 -21.140625 C 14.453125 -21.753906 13.835938 -22.25 13.078125 -22.625 C 12.316406 -23.007812 11.375 -23.203125 10.25 -23.203125 C 9.34375 -23.203125 8.488281 -23.03125 7.6875 -22.6875 C 6.882812 -22.34375 6.234375 -21.84375 5.734375 -21.1875 C 5.242188 -20.539062 5 -19.773438 5 -18.890625 C 5 -17.742188 5.425781 -16.820312 6.28125 -16.125 C 7.132812 -15.4375 8.515625 -14.84375 10.421875 -14.34375 C 11.785156 -14 13.015625 -13.566406 14.109375 -13.046875 C 15.210938 -12.523438 16.113281 -11.882812 16.8125 -11.125 C 17.351562 -10.539062 17.78125 -9.890625 18.09375 -9.171875 C 18.40625 -8.460938 18.5625 -7.6875 18.5625 -6.84375 C 18.5625 -5.613281 18.226562 -4.457031 17.5625 -3.375 C 16.90625 -2.289062 15.972656 -1.410156 14.765625 -0.734375 C 13.554688 -0.0664062 12.097656 0.265625 10.390625 0.265625 Z M 10.390625 0.265625 "/></g></g></g><g fill="#2c3e50" fill-opacity="1"><g transform="translate(226.769122, 200.039191)"><g><path d="M 15.34375 0 L 15.34375 -10.09375 C 15.34375 -11.625 14.941406 -12.878906 14.140625 -13.859375 C 13.347656 -14.847656 12.148438 -15.34375 10.546875 -15.34375 C 9.546875 -15.34375 8.65625 -15.097656 7.875 -14.609375 C 7.101562 -14.128906 6.492188 -13.476562 6.046875 -12.65625 C 5.609375 -11.832031 5.390625 -10.898438 5.390625 -9.859375 L 5.390625 0 L 2.859375 0 L 2.859375 -26.421875 L 5.390625 -26.421875 L 5.390625 -14.21875 C 6.773438 -16.507812 8.753906 -17.65625 11.328125 -17.65625 C 12.753906 -17.65625 13.953125 -17.359375 14.921875 -16.765625 C 15.898438 -16.171875 16.632812 -15.351562 17.125 -14.3125 C 17.625 -13.269531 17.875 -12.066406 17.875 -10.703125 L 17.875 0 Z M 15.34375 0 "/></g></g></g><g fill="#2c3e50" fill-opacity="1"><g transform="translate(245.100309, 200.039191)"><g><path d="M 13.3125 -10 L 13.3125 -11.15625 C 13.3125 -13.96875 11.835938 -15.375 8.890625 -15.375 C 7.566406 -15.375 6.515625 -15.035156 5.734375 -14.359375 C 4.960938 -13.679688 4.359375 -12.882812 3.921875 -11.96875 L 1.84375 -13.140625 C 2.457031 -14.523438 3.359375 -15.617188 4.546875 -16.421875 C 5.734375 -17.222656 7.203125 -17.625 8.953125 -17.625 C 10.796875 -17.625 12.207031 -17.265625 13.1875 -16.546875 C 14.175781 -15.835938 14.875 -15.003906 15.28125 -14.046875 C 15.476562 -13.578125 15.613281 -13.054688 15.6875 -12.484375 C 15.757812 -11.910156 15.796875 -11.484375 15.796875 -11.203125 L 15.796875 0 L 13.34375 0 L 13.34375 -3.046875 L 13.3125 -3.046875 C 12.632812 -1.984375 11.8125 -1.160156 10.84375 -0.578125 C 9.882812 0.00390625 8.757812 0.296875 7.46875 0.296875 C 6.300781 0.296875 5.28125 0.078125 4.40625 -0.359375 C 3.539062 -0.804688 2.863281 -1.414062 2.375 -2.1875 C 1.894531 -2.957031 1.65625 -3.828125 1.65625 -4.796875 L 1.65625 -5 C 1.65625 -5.945312 1.863281 -6.738281 2.28125 -7.375 C 2.707031 -8.019531 3.253906 -8.53125 3.921875 -8.90625 C 4.597656 -9.28125 5.332031 -9.554688 6.125 -9.734375 C 6.925781 -9.910156 7.71875 -10 8.5 -10 Z M 13.3125 -7.921875 L 8.46875 -7.921875 C 7.863281 -7.921875 7.222656 -7.835938 6.546875 -7.671875 C 5.878906 -7.515625 5.316406 -7.222656 4.859375 -6.796875 C 4.410156 -6.378906 4.1875 -5.78125 4.1875 -5 C 4.1875 -4.019531 4.546875 -3.265625 5.265625 -2.734375 C 5.992188 -2.210938 6.878906 -1.953125 7.921875 -1.953125 C 8.953125 -1.953125 9.875 -2.175781 10.6875 -2.625 C 11.5 -3.082031 12.140625 -3.710938 12.609375 -4.515625 C 13.078125 -5.316406 13.3125 -6.242188 13.3125 -7.296875 Z M 13.3125 -7.921875 "/></g></g></g><g fill="#2c3e50" fill-opacity="1"><g transform="translate(261.355003, 200.039191)"><g><path d="M 5.359375 -17.328125 L 5.359375 -13.890625 C 6.003906 -15.234375 6.84375 -16.1875 7.875 -16.75 C 8.914062 -17.3125 9.9375 -17.59375 10.9375 -17.59375 C 11.019531 -17.59375 11.160156 -17.59375 11.359375 -17.59375 C 11.554688 -17.59375 11.695312 -17.582031 11.78125 -17.5625 L 11.78125 -14.859375 C 11.625 -14.878906 11.460938 -14.894531 11.296875 -14.90625 C 11.140625 -14.914062 10.976562 -14.921875 10.8125 -14.921875 C 9.445312 -14.921875 8.367188 -14.597656 7.578125 -13.953125 C 6.785156 -13.304688 6.222656 -12.488281 5.890625 -11.5 C 5.554688 -10.519531 5.390625 -9.507812 5.390625 -8.46875 L 5.390625 0 L 2.859375 0 L 2.859375 -17.328125 Z M 5.359375 -17.328125 "/></g></g></g><g fill="#2c3e50" fill-opacity="1"><g transform="translate(271.510015, 200.039191)"><g><path d="M 18.171875 -7.890625 L 4.15625 -7.890625 C 4.21875 -6.765625 4.53125 -5.75 5.09375 -4.84375 C 5.65625 -3.945312 6.390625 -3.238281 7.296875 -2.71875 C 8.210938 -2.207031 9.234375 -1.953125 10.359375 -1.953125 C 11.628906 -1.953125 12.738281 -2.28125 13.6875 -2.9375 C 14.644531 -3.59375 15.363281 -4.421875 15.84375 -5.421875 L 17.71875 -4.1875 C 16.976562 -2.738281 15.953125 -1.628906 14.640625 -0.859375 C 13.335938 -0.0859375 11.921875 0.296875 10.390625 0.296875 C 8.703125 0.296875 7.195312 -0.101562 5.875 -0.90625 C 4.550781 -1.707031 3.503906 -2.789062 2.734375 -4.15625 C 1.972656 -5.519531 1.59375 -7.035156 1.59375 -8.703125 C 1.59375 -9.867188 1.800781 -10.984375 2.21875 -12.046875 C 2.644531 -13.117188 3.234375 -14.070312 3.984375 -14.90625 C 4.742188 -15.738281 5.632812 -16.398438 6.65625 -16.890625 C 7.6875 -17.378906 8.8125 -17.625 10.03125 -17.625 C 11.820312 -17.625 13.320312 -17.234375 14.53125 -16.453125 C 15.75 -15.671875 16.664062 -14.609375 17.28125 -13.265625 C 17.894531 -11.929688 18.203125 -10.421875 18.203125 -8.734375 C 18.203125 -8.578125 18.203125 -8.425781 18.203125 -8.28125 C 18.203125 -8.144531 18.191406 -8.015625 18.171875 -7.890625 Z M 4.1875 -10.03125 L 15.640625 -10.03125 C 15.492188 -11.601562 14.9375 -12.894531 13.96875 -13.90625 C 13.007812 -14.914062 11.695312 -15.421875 10.03125 -15.421875 C 9.03125 -15.421875 8.113281 -15.171875 7.28125 -14.671875 C 6.445312 -14.171875 5.757812 -13.515625 5.21875 -12.703125 C 4.675781 -11.890625 4.332031 -11 4.1875 -10.03125 Z M 4.1875 -10.03125 "/></g></g></g></svg>