<svg xmlns="http://www.w3.org/2000/svg" xmlns:xlink="http://www.w3.org/1999/xlink" width="200" zoomAndPan="magnify" viewBox="80 80 220 220" height="200" preserveAspectRatio="xMidYMid meet" version="1.0"><defs><g/><clipPath id="5dbb31cb32"><path d="M 127 101.640625 L 248 101.640625 L 248 142 L 127 142 Z M 127 101.640625 " clip-rule="nonzero"/></clipPath><clipPath id="355dd6159b"><path d="M 112.5 135 L 262.5 135 L 262.5 220.890625 L 112.5 220.890625 Z M 112.5 135 " clip-rule="nonzero"/></clipPath></defs><g clip-path="url(#5dbb31cb32)"><path fill="#0092b1" d="M 133.367188 141.238281 C 134.609375 138.722656 136.019531 136.300781 137.601562 133.980469 C 139.179688 131.660156 140.910156 129.460938 142.792969 127.382812 C 144.679688 125.300781 146.699219 123.363281 148.851562 121.566406 C 151.003906 119.769531 153.269531 118.128906 155.648438 116.648438 C 158.03125 115.164062 160.5 113.855469 163.0625 112.71875 C 165.625 111.582031 168.25 110.628906 170.945312 109.859375 C 173.640625 109.089844 176.371094 108.507812 179.148438 108.121094 C 181.921875 107.730469 184.707031 107.535156 187.507812 107.535156 C 190.3125 107.535156 193.097656 107.730469 195.871094 108.121094 C 198.644531 108.507812 201.378906 109.089844 204.074219 109.859375 C 206.769531 110.628906 209.394531 111.582031 211.957031 112.71875 C 214.519531 113.855469 216.988281 115.164062 219.371094 116.648438 C 221.75 118.128906 224.015625 119.769531 226.167969 121.566406 C 228.320312 123.363281 230.339844 125.300781 232.222656 127.382812 C 234.109375 129.460938 235.839844 131.660156 237.417969 133.980469 C 238.996094 136.300781 240.410156 138.722656 241.652344 141.238281 C 243.097656 140.464844 246.84375 139.546875 247.320312 139.503906 C 245.980469 136.683594 244.453125 133.972656 242.730469 131.367188 C 241.011719 128.765625 239.117188 126.296875 237.050781 123.960938 C 234.984375 121.625 232.761719 119.445312 230.390625 117.425781 C 228.015625 115.402344 225.511719 113.558594 222.878906 111.890625 C 220.246094 110.222656 217.511719 108.75 214.671875 107.46875 C 211.832031 106.1875 208.914062 105.113281 205.925781 104.246094 C 202.933594 103.378906 199.898438 102.726562 196.8125 102.285156 C 193.730469 101.847656 190.632812 101.628906 187.519531 101.628906 C 184.40625 101.628906 181.308594 101.847656 178.222656 102.285156 C 175.140625 102.726562 172.105469 103.378906 169.113281 104.246094 C 166.121094 105.113281 163.207031 106.1875 160.367188 107.46875 C 157.527344 108.75 154.789062 110.222656 152.15625 111.890625 C 149.523438 113.558594 147.023438 115.402344 144.648438 117.425781 C 142.273438 119.445312 140.054688 121.625 137.988281 123.960938 C 135.921875 126.296875 134.027344 128.765625 132.308594 131.367188 C 130.585938 133.972656 129.058594 136.683594 127.71875 139.503906 C 128.167969 139.546875 131.929688 140.464844 133.367188 141.238281 Z M 133.367188 141.238281 " fill-opacity="1" fill-rule="nonzero"/></g><path fill="#2c3e50" d="M 260.488281 148.285156 L 260.148438 146.460938 C 260.070312 146.039062 259.921875 145.644531 259.703125 145.277344 C 259.480469 144.910156 259.207031 144.589844 258.871094 144.324219 C 258.539062 144.054688 258.167969 143.855469 257.761719 143.722656 C 257.355469 143.589844 256.9375 143.53125 256.511719 143.550781 C 252.820312 143.699219 248.902344 143.976562 246.792969 144.300781 C 242.332031 144.988281 236.472656 151.300781 236.472656 151.300781 L 225.101562 135.371094 C 221.371094 130.148438 217.136719 125.605469 210.214844 125.605469 L 164.824219 125.605469 C 157.886719 125.605469 153.671875 130.148438 149.921875 135.371094 L 138.546875 151.300781 C 138.546875 151.300781 132.6875 144.988281 128.226562 144.296875 C 126.121094 143.972656 122.199219 143.695312 118.511719 143.542969 C 118.085938 143.527344 117.667969 143.585938 117.261719 143.71875 C 116.855469 143.851562 116.484375 144.050781 116.148438 144.316406 C 115.816406 144.585938 115.539062 144.902344 115.316406 145.269531 C 115.097656 145.636719 114.949219 146.03125 114.871094 146.453125 L 114.53125 148.28125 C 113.992188 151.21875 115.734375 152.332031 118.734375 153.160156 C 121.234375 153.851562 125.09375 154.835938 126.515625 154.6875 C 128.8125 154.449219 132.21875 152.910156 132.792969 152.71875 L 132.839844 152.769531 C 133.015625 152.960938 133.164062 153.167969 133.285156 153.394531 C 133.410156 153.617188 133.507812 153.855469 133.574219 154.105469 C 133.640625 154.351562 133.679688 154.605469 133.683594 154.863281 C 133.691406 155.121094 133.667969 155.375 133.613281 155.625 C 133.5625 155.875 133.476562 156.117188 133.367188 156.351562 C 133.253906 156.582031 133.117188 156.796875 132.953125 156.996094 C 132.792969 157.195312 132.609375 157.371094 132.402344 157.527344 C 132.199219 157.679688 131.976562 157.808594 131.742188 157.910156 C 129.5 158.898438 126.484375 160.359375 125.75 161.410156 C 124.191406 162.972656 122.246094 185.734375 121.632812 193.410156 C 121.570312 194.191406 121.699219 194.9375 122.027344 195.648438 C 122.351562 196.359375 122.828125 196.945312 123.457031 197.410156 L 127.628906 200.476562 L 127.628906 204.210938 C 127.628906 204.375 127.660156 204.53125 127.722656 204.683594 C 127.785156 204.835938 127.875 204.972656 127.992188 205.089844 C 128.105469 205.203125 128.242188 205.292969 128.390625 205.359375 C 128.542969 205.421875 128.699219 205.453125 128.863281 205.457031 L 138.421875 205.539062 L 158.257812 182.363281 C 158.257812 181.136719 158.445312 174.242188 158.601562 172.628906 L 152.792969 172.628906 L 147.273438 175.792969 C 146.800781 176.0625 146.289062 176.183594 145.746094 176.160156 L 136.429688 175.726562 C 135.910156 175.699219 135.410156 175.582031 134.933594 175.375 C 134.457031 175.164062 134.03125 174.875 133.664062 174.507812 C 133.292969 174.140625 133 173.714844 132.789062 173.238281 C 132.574219 172.761719 132.453125 172.265625 132.425781 171.742188 L 132.042969 164.683594 C 132.039062 164.613281 132.050781 164.546875 132.082031 164.484375 C 132.109375 164.421875 132.148438 164.367188 132.203125 164.324219 C 132.257812 164.28125 132.316406 164.25 132.386719 164.238281 C 132.453125 164.222656 132.519531 164.222656 132.585938 164.242188 L 153.527344 169.863281 L 158.960938 169.863281 C 159.816406 165.636719 161.375 162.449219 165.589844 157.402344 L 145.890625 151.109375 C 145.71875 151.054688 145.570312 150.96875 145.441406 150.84375 C 145.3125 150.71875 145.222656 150.570312 145.164062 150.402344 C 145.109375 150.234375 145.09375 150.058594 145.121094 149.882812 C 145.148438 149.707031 145.214844 149.546875 145.320312 149.402344 C 147.398438 146.589844 151.375 139.570312 156.152344 133.753906 C 156.671875 133.117188 157.300781 132.621094 158.042969 132.269531 C 158.785156 131.917969 159.566406 131.742188 160.386719 131.738281 L 214.636719 131.738281 C 215.457031 131.742188 216.238281 131.917969 216.976562 132.269531 C 217.71875 132.621094 218.347656 133.117188 218.867188 133.753906 C 223.644531 139.570312 227.621094 146.589844 229.699219 149.402344 C 229.804688 149.546875 229.871094 149.707031 229.898438 149.882812 C 229.925781 150.058594 229.910156 150.234375 229.855469 150.402344 C 229.796875 150.570312 229.707031 150.71875 229.578125 150.84375 C 229.449219 150.96875 229.300781 151.054688 229.128906 151.109375 L 212.550781 156.484375 C 213.265625 156.898438 213.917969 157.386719 214.515625 157.957031 C 215.109375 158.527344 215.632812 159.15625 216.078125 159.851562 C 216.523438 160.546875 216.878906 161.285156 217.148438 162.0625 C 217.417969 162.84375 217.589844 163.644531 217.667969 164.464844 C 218.808594 164.964844 219.832031 165.644531 220.730469 166.507812 C 221.628906 167.371094 222.351562 168.367188 222.894531 169.488281 L 242.4375 164.246094 C 242.503906 164.226562 242.570312 164.226562 242.636719 164.242188 C 242.703125 164.253906 242.765625 164.285156 242.820312 164.328125 C 242.871094 164.371094 242.914062 164.425781 242.941406 164.488281 C 242.96875 164.550781 242.980469 164.617188 242.976562 164.6875 L 242.59375 171.746094 C 242.566406 172.269531 242.445312 172.769531 242.234375 173.246094 C 242.019531 173.722656 241.726562 174.144531 241.359375 174.511719 C 240.988281 174.878906 240.5625 175.167969 240.085938 175.378906 C 239.609375 175.589844 239.109375 175.707031 238.589844 175.730469 L 229.277344 176.167969 C 228.730469 176.191406 228.21875 176.066406 227.746094 175.796875 L 223.921875 173.613281 C 223.960938 174.339844 223.9375 175.066406 223.851562 175.792969 C 224.910156 176.390625 225.816406 177.167969 226.570312 178.125 C 227.324219 179.082031 227.871094 180.144531 228.207031 181.320312 C 229.765625 186.527344 227.167969 192.34375 221.265625 196.929688 C 219.511719 198.222656 217.628906 199.289062 215.617188 200.132812 C 216.648438 200.320312 217.660156 200.589844 218.648438 200.9375 L 223.257812 202.550781 L 223.257812 204.398438 C 223.257812 204.5625 223.289062 204.722656 223.351562 204.875 C 223.417969 205.03125 223.507812 205.164062 223.625 205.28125 C 223.742188 205.402344 223.878906 205.492188 224.03125 205.554688 C 224.183594 205.617188 224.34375 205.648438 224.511719 205.648438 L 246.171875 205.460938 C 246.335938 205.460938 246.496094 205.425781 246.644531 205.363281 C 246.796875 205.300781 246.929688 205.210938 247.046875 205.09375 C 247.160156 204.976562 247.25 204.839844 247.3125 204.6875 C 247.375 204.539062 247.40625 204.378906 247.40625 204.214844 L 247.40625 200.480469 L 251.578125 197.414062 C 252.207031 196.953125 252.683594 196.363281 253.007812 195.652344 C 253.335938 194.941406 253.464844 194.195312 253.402344 193.417969 C 252.785156 185.746094 250.839844 162.976562 249.289062 161.414062 C 248.535156 160.363281 245.53125 158.902344 243.296875 157.917969 C 243.058594 157.816406 242.839844 157.6875 242.632812 157.535156 C 242.429688 157.378906 242.246094 157.203125 242.082031 157.003906 C 241.917969 156.804688 241.78125 156.589844 241.667969 156.355469 C 241.558594 156.125 241.472656 155.882812 241.421875 155.628906 C 241.367188 155.378906 241.34375 155.125 241.351562 154.867188 C 241.359375 154.609375 241.394531 154.355469 241.460938 154.105469 C 241.53125 153.855469 241.625 153.621094 241.75 153.394531 C 241.875 153.167969 242.023438 152.960938 242.199219 152.769531 L 242.242188 152.722656 C 242.820312 152.914062 246.222656 154.453125 248.519531 154.695312 C 249.953125 154.84375 253.773438 153.855469 256.296875 153.164062 C 259.265625 152.335938 261.03125 151.222656 260.488281 148.285156 Z M 260.488281 148.285156 " fill-opacity="1" fill-rule="nonzero"/><g clip-path="url(#355dd6159b)"><path fill="#0092b1" d="M 185.902344 216.191406 L 186.621094 214.96875 C 186.957031 214.390625 187.402344 213.914062 187.953125 213.539062 C 188.507812 213.164062 189.113281 212.925781 189.773438 212.828125 C 204.171875 210.710938 211.777344 203.597656 214.472656 196.4375 C 216.273438 196.207031 217.898438 195.539062 219.34375 194.433594 C 222.953125 191.636719 226.65625 187.054688 225.203125 182.195312 C 225.039062 181.621094 224.800781 181.085938 224.484375 180.582031 C 224.167969 180.078125 223.789062 179.628906 223.34375 179.234375 C 222.898438 178.84375 222.40625 178.519531 221.867188 178.269531 C 221.328125 178.015625 220.769531 177.847656 220.179688 177.757812 C 220.722656 176.335938 220.925781 174.871094 220.789062 173.355469 C 220.707031 172.535156 220.496094 171.746094 220.152344 170.996094 C 219.808594 170.246094 219.351562 169.570312 218.78125 168.972656 C 218.210938 168.375 217.558594 167.890625 216.824219 167.511719 C 216.089844 167.136719 215.316406 166.890625 214.5 166.777344 C 214.617188 166.007812 214.625 165.238281 214.527344 164.464844 C 214.027344 160.578125 210.496094 158.089844 206.882812 158.011719 C 207.019531 157.074219 207.003906 156.136719 206.835938 155.207031 C 205.878906 149.976562 199.015625 148.5625 195.058594 151.519531 C 194.804688 151.707031 190.675781 154.527344 187.792969 158.375 C 188.070312 155.910156 187.941406 153.46875 187.410156 151.050781 C 185.953125 144.46875 182.152344 137.75 175.300781 135.761719 C 172.890625 135.0625 170.214844 135.34375 168.816406 137.679688 C 167.09375 140.554688 169.125 143.53125 170.164062 146.242188 C 171.726562 150.304688 171.488281 154.070312 169.15625 157.746094 C 167.515625 160.316406 165.335938 162.507812 163.839844 165.175781 C 161.65625 169.085938 161.585938 173.804688 161.40625 178.195312 C 161.335938 179.976562 161.40625 183.527344 161.40625 183.527344 L 133.390625 216.191406 L 112.582031 216.191406 L 112.582031 220.871094 L 262.4375 220.871094 L 262.4375 216.191406 Z M 222.1875 183.417969 C 222.898438 186.464844 220.328125 189.199219 218.273438 191.085938 C 216.445312 192.75 213.019531 194.6875 211.066406 192.082031 C 210.0625 190.738281 210.429688 188.828125 211.300781 187.34375 C 211.695312 187.085938 212.066406 186.824219 212.421875 186.570312 C 214.527344 185.019531 216.722656 183.214844 218.351562 181.054688 C 220.085938 180.785156 221.722656 181.460938 222.1875 183.4375 Z M 213.464844 169.996094 C 216.445312 169.933594 218.121094 173.09375 217.285156 176.226562 C 216.449219 179.363281 213.542969 181.6875 211.074219 183.5625 C 208.683594 185.363281 203.574219 188.972656 201.402344 185.148438 C 200.644531 183.800781 201.222656 182.359375 202.207031 181.046875 C 203.769531 180.265625 205.203125 179.292969 206.507812 178.132812 C 208.90625 175.992188 211.878906 173.203125 213.464844 169.996094 Z M 205.683594 161.417969 C 209.03125 160.757812 212.109375 163.480469 211.03125 167.167969 C 210.167969 170.132812 207.78125 172.371094 205.636719 174.445312 C 203.25 176.753906 199.550781 180.371094 196.023438 178.082031 C 192.710938 175.9375 194.523438 172.421875 196.578125 170.121094 C 197.085938 169.792969 197.582031 169.4375 198.078125 169.074219 C 200.773438 167.117188 203.957031 164.550781 205.683594 161.417969 Z M 189.441406 161.742188 C 191.183594 158.804688 195.226562 155.46875 196.921875 154.15625 C 197.308594 153.871094 197.726562 153.648438 198.179688 153.488281 C 198.632812 153.328125 199.101562 153.238281 199.582031 153.222656 C 200.058594 153.203125 200.53125 153.253906 200.996094 153.378906 C 201.460938 153.503906 201.894531 153.695312 202.300781 153.949219 C 204.300781 155.28125 203.734375 157.960938 202.828125 159.800781 C 201.347656 162.796875 198.203125 165.023438 195.558594 166.90625 C 194.097656 167.945312 192.082031 169.359375 190.171875 168.652344 C 187.207031 167.546875 188.328125 163.640625 189.453125 161.742188 Z M 166.628906 187.253906 C 166.933594 186.871094 167.144531 186.441406 167.257812 185.96875 C 167.375 185.496094 167.390625 185.019531 167.300781 184.539062 C 165.9375 177.132812 167.15625 169.355469 169.75 164.472656 C 172.875 158.601562 175.265625 156.429688 174.328125 149.425781 C 174.042969 147.597656 173.515625 145.839844 172.75 144.152344 C 172.097656 142.613281 170 139.277344 172.75 138.707031 C 175.847656 138.070312 179.765625 142.0625 181.179688 144.234375 C 186.28125 151.976562 185.609375 162.519531 178.8125 170.371094 C 178.535156 170.699219 178.46875 171.066406 178.617188 171.472656 C 178.765625 171.878906 179.050781 172.117188 179.472656 172.191406 C 181.652344 172.59375 183.703125 173.347656 185.621094 174.464844 C 193.21875 178.808594 197.566406 186.578125 198.59375 195.554688 C 198.644531 195.785156 198.785156 195.910156 199.015625 195.929688 C 199.25 195.953125 199.410156 195.855469 199.503906 195.640625 C 200.277344 193.382812 200.472656 191.074219 200.082031 188.71875 C 202.082031 190.398438 204.71875 190.257812 207.246094 189.371094 C 207.113281 190.171875 207.128906 190.96875 207.300781 191.761719 C 207.46875 192.554688 207.78125 193.289062 208.230469 193.960938 C 208.890625 194.882812 209.742188 195.5625 210.789062 195.996094 C 206.316406 202.027344 200.277344 207.648438 187.78125 207.445312 C 186.480469 207.425781 185.238281 207.683594 184.050781 208.21875 C 182.863281 208.753906 181.847656 209.515625 180.996094 210.503906 L 176.089844 216.191406 L 142.917969 216.191406 C 148.957031 208.878906 162.816406 192.03125 166.644531 187.253906 Z M 166.628906 187.253906 " fill-opacity="1" fill-rule="nonzero"/></g><g fill="#0092b1" fill-opacity="1"><g transform="translate(84.592927, 268.162293)"><g><path d="M 20.515625 0 L 12.078125 0 L 0.921875 -37.984375 L 9.3125 -37.984375 L 16.546875 -11.015625 L 24.75 -37.984375 L 33.140625 -37.984375 L 41.328125 -10.8125 L 48.8125 -37.984375 L 56.90625 -37.984375 L 45.65625 0 L 37.15625 0 L 28.921875 -27.5625 L 28.8125 -27.5625 Z M 20.515625 0 "/></g></g></g><g fill="#0092b1" fill-opacity="1"><g transform="translate(139.123987, 268.162293)"><g><path d="M 9.609375 -10.875 C 9.867188 -9.25 10.601562 -7.988281 11.8125 -7.09375 C 13.03125 -6.207031 14.429688 -5.765625 16.015625 -5.765625 C 17.109375 -5.765625 18.195312 -6.039062 19.28125 -6.59375 C 20.363281 -7.144531 21.195312 -7.90625 21.78125 -8.875 L 27.265625 -5.28125 C 25.097656 -1.375 21.378906 0.578125 16.109375 0.578125 C 13.484375 0.578125 11.09375 0.00390625 8.9375 -1.140625 C 6.789062 -2.285156 5.078125 -3.875 3.796875 -5.90625 C 2.523438 -7.945312 1.890625 -10.3125 1.890625 -13 C 1.890625 -14.875 2.253906 -16.628906 2.984375 -18.265625 C 3.710938 -19.898438 4.707031 -21.335938 5.96875 -22.578125 C 7.226562 -23.828125 8.679688 -24.796875 10.328125 -25.484375 C 11.984375 -26.179688 13.75 -26.53125 15.625 -26.53125 C 18.207031 -26.53125 20.460938 -25.976562 22.390625 -24.875 C 24.316406 -23.78125 25.820312 -22.265625 26.90625 -20.328125 C 27.988281 -18.390625 28.53125 -16.140625 28.53125 -13.578125 C 28.53125 -13.128906 28.53125 -12.675781 28.53125 -12.21875 C 28.53125 -11.769531 28.5 -11.320312 28.4375 -10.875 Z M 20.953125 -15.859375 C 20.921875 -16.503906 20.703125 -17.175781 20.296875 -17.875 C 19.898438 -18.570312 19.300781 -19.160156 18.5 -19.640625 C 17.707031 -20.128906 16.679688 -20.375 15.421875 -20.375 C 14.296875 -20.375 13.328125 -20.113281 12.515625 -19.59375 C 11.703125 -19.082031 11.070312 -18.476562 10.625 -17.78125 C 10.175781 -17.082031 9.898438 -16.441406 9.796875 -15.859375 Z M 20.953125 -15.859375 "/></g></g></g><g fill="#2c3e50" fill-opacity="1"><g transform="translate(166.325062, 268.162293)"><g><path d="M 15.53125 0.390625 C 12.195312 0.390625 9.445312 -0.429688 7.28125 -2.078125 C 5.113281 -3.734375 3.476562 -6 2.375 -8.875 L 5.828125 -10.671875 C 6.734375 -8.472656 7.925781 -6.703125 9.40625 -5.359375 C 10.894531 -4.015625 12.9375 -3.34375 15.53125 -3.34375 C 17.007812 -3.34375 18.363281 -3.617188 19.59375 -4.171875 C 20.820312 -4.722656 21.804688 -5.488281 22.546875 -6.46875 C 23.296875 -7.457031 23.671875 -8.617188 23.671875 -9.953125 C 23.671875 -11.953125 22.898438 -13.539062 21.359375 -14.71875 C 19.828125 -15.90625 17.65625 -16.835938 14.84375 -17.515625 C 10.925781 -18.453125 8.054688 -19.773438 6.234375 -21.484375 C 4.410156 -23.203125 3.5 -25.390625 3.5 -28.046875 C 3.5 -30.210938 4.054688 -32.070312 5.171875 -33.625 C 6.285156 -35.175781 7.75 -36.363281 9.5625 -37.1875 C 11.375 -38.007812 13.328125 -38.421875 15.421875 -38.421875 C 18.597656 -38.421875 21.179688 -37.664062 23.171875 -36.15625 C 25.160156 -34.65625 26.570312 -32.773438 27.40625 -30.515625 L 24.015625 -28.625 C 23.597656 -29.6875 23.03125 -30.675781 22.3125 -31.59375 C 21.601562 -32.519531 20.679688 -33.265625 19.546875 -33.828125 C 18.421875 -34.398438 17.015625 -34.6875 15.328125 -34.6875 C 13.972656 -34.6875 12.695312 -34.425781 11.5 -33.90625 C 10.300781 -33.394531 9.328125 -32.648438 8.578125 -31.671875 C 7.835938 -30.703125 7.46875 -29.554688 7.46875 -28.234375 C 7.46875 -26.523438 8.101562 -25.148438 9.375 -24.109375 C 10.65625 -23.078125 12.722656 -22.1875 15.578125 -21.4375 C 17.609375 -20.925781 19.445312 -20.28125 21.09375 -19.5 C 22.75 -18.726562 24.09375 -17.773438 25.125 -16.640625 C 25.9375 -15.765625 26.578125 -14.789062 27.046875 -13.71875 C 27.515625 -12.65625 27.75 -11.492188 27.75 -10.234375 C 27.75 -8.390625 27.253906 -6.660156 26.265625 -5.046875 C 25.285156 -3.429688 23.890625 -2.117188 22.078125 -1.109375 C 20.265625 -0.109375 18.082031 0.390625 15.53125 0.390625 Z M 15.53125 0.390625 "/></g></g></g><g fill="#2c3e50" fill-opacity="1"><g transform="translate(193.541832, 268.162293)"><g><path d="M 22.953125 0 L 22.953125 -15.09375 C 22.953125 -17.382812 22.351562 -19.265625 21.15625 -20.734375 C 19.957031 -22.210938 18.160156 -22.953125 15.765625 -22.953125 C 14.273438 -22.953125 12.945312 -22.585938 11.78125 -21.859375 C 10.625 -21.128906 9.710938 -20.148438 9.046875 -18.921875 C 8.378906 -17.691406 8.046875 -16.300781 8.046875 -14.75 L 8.046875 0 L 4.265625 0 L 4.265625 -39.484375 L 8.046875 -39.484375 L 8.046875 -21.25 C 10.117188 -24.675781 13.082031 -26.390625 16.9375 -26.390625 C 19.070312 -26.390625 20.863281 -25.941406 22.3125 -25.046875 C 23.769531 -24.160156 24.867188 -22.941406 25.609375 -21.390625 C 26.359375 -19.835938 26.734375 -18.046875 26.734375 -16.015625 L 26.734375 0 Z M 22.953125 0 "/></g></g></g><g fill="#2c3e50" fill-opacity="1"><g transform="translate(220.952658, 268.162293)"><g><path d="M 19.890625 -14.9375 L 19.890625 -16.6875 C 19.890625 -20.894531 17.691406 -23 13.296875 -23 C 11.316406 -23 9.742188 -22.488281 8.578125 -21.46875 C 7.421875 -20.445312 6.519531 -19.257812 5.875 -17.90625 L 2.765625 -19.65625 C 3.671875 -21.71875 5.007812 -23.347656 6.78125 -24.546875 C 8.5625 -25.742188 10.765625 -26.34375 13.390625 -26.34375 C 16.140625 -26.34375 18.25 -25.804688 19.71875 -24.734375 C 21.1875 -23.671875 22.226562 -22.425781 22.84375 -21 C 23.132812 -20.289062 23.335938 -19.507812 23.453125 -18.65625 C 23.566406 -17.800781 23.625 -17.160156 23.625 -16.734375 L 23.625 0 L 19.9375 0 L 19.9375 -4.5625 L 19.890625 -4.5625 C 18.890625 -2.976562 17.664062 -1.75 16.21875 -0.875 C 14.78125 0 13.09375 0.4375 11.15625 0.4375 C 9.40625 0.4375 7.882812 0.109375 6.59375 -0.546875 C 5.300781 -1.210938 4.289062 -2.117188 3.5625 -3.265625 C 2.832031 -4.421875 2.46875 -5.726562 2.46875 -7.1875 L 2.46875 -7.46875 C 2.46875 -8.894531 2.78125 -10.082031 3.40625 -11.03125 C 4.039062 -11.988281 4.859375 -12.75 5.859375 -13.3125 C 6.867188 -13.882812 7.972656 -14.296875 9.171875 -14.546875 C 10.367188 -14.804688 11.550781 -14.9375 12.71875 -14.9375 Z M 19.890625 -11.84375 L 12.65625 -11.84375 C 11.75 -11.84375 10.796875 -11.71875 9.796875 -11.46875 C 8.796875 -11.226562 7.957031 -10.789062 7.28125 -10.15625 C 6.601562 -9.53125 6.265625 -8.632812 6.265625 -7.46875 C 6.265625 -6.007812 6.804688 -4.882812 7.890625 -4.09375 C 8.972656 -3.300781 10.289062 -2.90625 11.84375 -2.90625 C 13.394531 -2.90625 14.773438 -3.242188 15.984375 -3.921875 C 17.203125 -4.609375 18.15625 -5.546875 18.84375 -6.734375 C 19.539062 -7.929688 19.890625 -9.328125 19.890625 -10.921875 Z M 19.890625 -11.84375 "/></g></g></g><g fill="#2c3e50" fill-opacity="1"><g transform="translate(245.258482, 268.162293)"><g><path d="M 8 -25.90625 L 8 -20.765625 C 8.96875 -22.765625 10.226562 -24.1875 11.78125 -25.03125 C 13.34375 -25.875 14.863281 -26.296875 16.34375 -26.296875 C 16.476562 -26.296875 16.691406 -26.296875 16.984375 -26.296875 C 17.273438 -26.296875 17.484375 -26.28125 17.609375 -26.25 L 17.609375 -22.21875 C 17.378906 -22.25 17.144531 -22.269531 16.90625 -22.28125 C 16.664062 -22.300781 16.414062 -22.3125 16.15625 -22.3125 C 14.113281 -22.3125 12.503906 -21.828125 11.328125 -20.859375 C 10.148438 -19.890625 9.304688 -18.664062 8.796875 -17.1875 C 8.296875 -15.71875 8.046875 -14.207031 8.046875 -12.65625 L 8.046875 0 L 4.265625 0 L 4.265625 -25.90625 Z M 8 -25.90625 "/></g></g></g><g fill="#2c3e50" fill-opacity="1"><g transform="translate(260.443383, 268.162293)"><g><path d="M 27.171875 -11.796875 L 6.203125 -11.796875 C 6.304688 -10.109375 6.773438 -8.59375 7.609375 -7.25 C 8.453125 -5.90625 9.550781 -4.84375 10.90625 -4.0625 C 12.269531 -3.289062 13.789062 -2.90625 15.46875 -2.90625 C 17.382812 -2.90625 19.050781 -3.398438 20.46875 -4.390625 C 21.894531 -5.378906 22.960938 -6.617188 23.671875 -8.109375 L 26.484375 -6.265625 C 25.390625 -4.097656 23.863281 -2.4375 21.90625 -1.28125 C 19.945312 -0.132812 17.820312 0.4375 15.53125 0.4375 C 13 0.4375 10.75 -0.160156 8.78125 -1.359375 C 6.8125 -2.554688 5.25 -4.171875 4.09375 -6.203125 C 2.945312 -8.242188 2.375 -10.507812 2.375 -13 C 2.375 -14.75 2.6875 -16.421875 3.3125 -18.015625 C 3.945312 -19.617188 4.832031 -21.039062 5.96875 -22.28125 C 7.101562 -23.53125 8.4375 -24.519531 9.96875 -25.25 C 11.507812 -25.976562 13.179688 -26.34375 14.984375 -26.34375 C 17.671875 -26.34375 19.921875 -25.757812 21.734375 -24.59375 C 23.546875 -23.425781 24.910156 -21.835938 25.828125 -19.828125 C 26.753906 -17.828125 27.21875 -15.566406 27.21875 -13.046875 C 27.21875 -12.828125 27.21875 -12.609375 27.21875 -12.390625 C 27.21875 -12.179688 27.203125 -11.984375 27.171875 -11.796875 Z M 6.265625 -14.984375 L 23.390625 -14.984375 C 23.160156 -17.347656 22.328125 -19.28125 20.890625 -20.78125 C 19.453125 -22.289062 17.484375 -23.046875 14.984375 -23.046875 C 13.503906 -23.046875 12.140625 -22.671875 10.890625 -21.921875 C 9.648438 -21.179688 8.625 -20.203125 7.8125 -18.984375 C 7 -17.773438 6.484375 -16.441406 6.265625 -14.984375 Z M 6.265625 -14.984375 "/></g></g></g></svg>